<?xml version="1.0" encoding="UTF-8" standalone="no"?>
<!-- Uploaded to: SVG Repo, www.svgrepo.com, Generator: SVG Repo Mixer Tools -->

<svg
   width="800px"
   height="800px"
   viewBox="0 0 32 32"
   version="1.1"
   id="svg2"
   sodipodi:docname="favicon5.svg"
   inkscape:version="1.3.2 (091e20e, 2023-11-25)"
   xmlns:inkscape="http://www.inkscape.org/namespaces/inkscape"
   xmlns:sodipodi="http://sodipodi.sourceforge.net/DTD/sodipodi-0.dtd"
   xmlns="http://www.w3.org/2000/svg"
   xmlns:svg="http://www.w3.org/2000/svg"
   xmlns:rdf="http://www.w3.org/1999/02/22-rdf-syntax-ns#"
   xmlns:cc="http://creativecommons.org/ns#"
   xmlns:dc="http://purl.org/dc/elements/1.1/">
  <sodipodi:namedview
     id="namedview2"
     pagecolor="#ffffff"
     bordercolor="#000000"
     borderopacity="0.25"
     inkscape:showpageshadow="2"
     inkscape:pageopacity="0.0"
     inkscape:pagecheckerboard="0"
     inkscape:deskcolor="#d1d1d1"
     inkscape:zoom="0.23875392"
     inkscape:cx="64.920399"
     inkscape:cy="-257.58739"
     inkscape:window-width="1376"
     inkscape:window-height="916"
     inkscape:window-x="0"
     inkscape:window-y="38"
     inkscape:window-maximized="0"
     inkscape:current-layer="svg2" />
  <defs
     id="defs2">
    <linearGradient
       id="a"
       x1="-66.775"
       y1="-171.703"
       x2="-66.775"
       y2="-171.817"
       gradientTransform="matrix(240, 0, 0, -240, 16042, -41206)"
       gradientUnits="userSpaceOnUse">
      <stop
         offset="0"
         stop-color="#ec790f"
         id="stop1" />
      <stop
         offset="1"
         stop-color="#f51032"
         id="stop2" />
    </linearGradient>
  </defs>
  <title
     id="title2">file_type_favicon</title>
  <metadata
     id="metadata2">
    <rdf:RDF>
      <cc:Work
         rdf:about="">
        <dc:title>file_type_favicon</dc:title>
      </cc:Work>
    </rdf:RDF>
  </metadata>
  <path
     style="fill:#3d3dc7;stroke-width:0.0390121;fill-opacity:1"
     d="m 18.743893,1.381965 -5.794041,0.010511 0.0079,-0.47780109 c 0.04678,-0.20394325 0.226761,-0.28611612 0.441662,-0.3363698 l 5.005135,0.0105123 c 0.209206,0.0337957 0.356611,0.11744556 0.340145,0.27693177 z"
     id="path1"
     sodipodi:nodetypes="ccccccc" />
  <path
     style="fill:#3d3dc7;stroke-width:0.0390121;fill-opacity:1"
     d="m 12.950225,1.3337601 0.03124,3.2212241 C 10.581541,5.193818 9.8355927,6.8575981 9.7419227,7.9446112 l 0.9223583,-0.016616 c 0.866531,-2.1931237 2.470813,-2.5477505 3.201288,-2.6810556 l 0.0095,-3.8671268 z"
     id="path2"
     sodipodi:nodetypes="ccccccc" />
  <path
     style="fill:#3d3dc7;stroke-width:0.0390121;fill-opacity:1"
     d="m 18.74419,1.3643135 0.04704,3.2019963 c 1.353916,0.1307359 3.46217,1.7204601 3.367141,3.3818525 l -0.957883,0.00519 C 20.830969,5.932495 19.04123,5.2226837 17.841357,5.2610985 l 0.01314,-3.8930609 z"
     id="path3"
     sodipodi:nodetypes="ccccccc" />
  <rect
     style="fill:#3d3dc7;stroke-width:0.0522307;fill-opacity:1"
     id="rect3"
     width="4.074194"
     height="0.82335532"
     x="13.833539"
     y="2.3614757" />
  <rect
     style="fill:#3d3dc7;stroke-width:0.0520359;fill-opacity:1"
     id="rect3-5"
     width="4.1023984"
     height="0.81160176"
     x="13.784296"
     y="4.4482808" />
  <path
     style="fill:#3d3dc7;stroke-width:0.0390121;fill-opacity:1"
     d="m 8.3620537,11.70743 0.995758,-0.182835 -0.0135,-2.7475404 13.1866863,0.012189 0.04195,2.7719174 0.93886,0.158459 -0.01423,-3.4494833 C 23.492947,8.0903093 23.415294,7.9339534 23.056604,7.8679001 L 8.8314847,7.9166556 C 8.4773619,7.9956459 8.4200239,8.177948 8.4189555,8.3798368 Z"
     id="path4"
     sodipodi:nodetypes="ccccccccccc" />
  <path
     style="fill:#3d3dc7;stroke-width:0.0390121;fill-opacity:1"
     d="m 6.535692,12.092114 9.48558,-1.886357 9.384129,1.895049 c 0.204347,0.08219 0.343123,0.213176 0.243478,0.521573 l -1.625812,4.91428 c -0.567272,0.263167 -0.775997,0.05512 -0.926466,-0.272 l 1.527634,-4.511886 -8.547028,-1.669745 -8.7159426,1.747506 1.5883847,4.312141 C 8.7246918,17.750259 8.2738636,17.559096 7.971902,17.437996 L 6.2414873,12.578914 c -0.00674,-0.15984 -0.028201,-0.319338 0.2942047,-0.4868 z"
     id="path5"
     sodipodi:nodetypes="ccccccccccccc" />
  <rect
     style="fill:#3d3dc7;stroke-width:0.0390121;fill-opacity:1"
     id="rect5"
     width="1.032191"
     height="8.4859056"
     x="15.545983"
     y="11.07625" />
  <path
     style="fill:#3d3dc7;stroke-width:0.0390121;fill-opacity:1"
     d="m 7.7348086,14.207669 8.2296304,-1.553758 8.313325,1.529854 -0.278971,0.78883 -8.062249,-1.386429 -7.9785588,1.458141 z"
     id="path6"
     sodipodi:nodetypes="ccccccc" />
  <ellipse
     style="fill:#3d3dc7;stroke-width:0.0512397;fill-opacity:1"
     id="path11"
     cx="11.887566"
     cy="16.590347"
     rx="1.5868633"
     ry="1.7365161" />
  <ellipse
     style="fill:#3d3dc7;stroke-width:0.0512397;fill-opacity:1"
     id="path11-5"
     cx="20.020628"
     cy="16.633698"
     rx="1.5868633"
     ry="1.7365161" />
  <ellipse
     style="fill:#3d3dc7;stroke-width:0.0320868;fill-opacity:1"
     id="path11-5-9"
     cx="11.884441"
     cy="16.590754"
     rx="0.95594168"
     ry="1.1303738" />
  <path
     style="fill:#3d3dc7;fill-opacity:1;stroke-width:0.0353954"
     d="m 11.728701,17.680407 c -0.195489,-0.03425 -0.481293,-0.241344 -0.5942,-0.430566 -0.24159,-0.404876 -0.242041,-0.913353 -0.0011,-1.317014 0.08857,-0.148434 0.343624,-0.360751 0.49106,-0.408782 0.147387,-0.04801 0.42816,-0.03726 0.573863,0.02198 0.185086,0.07526 0.417654,0.314402 0.517036,0.531652 0.112272,0.245427 0.122585,0.72747 0.02091,0.977196 -0.182261,0.447653 -0.587314,0.699138 -1.007497,0.625528 z"
     id="path12" />
  <path
     style="fill:#3d3dc7;fill-opacity:1;stroke-width:0.0353955"
     d="m 19.878467,17.714043 c -0.19549,-0.03425 -0.481294,-0.241344 -0.594202,-0.430565 -0.24159,-0.404878 -0.24204,-0.913354 -0.0011,-1.317015 0.08858,-0.148434 0.343625,-0.360752 0.491062,-0.408782 0.147385,-0.04801 0.428157,-0.03726 0.573862,0.02198 0.185085,0.07526 0.417654,0.3144 0.517035,0.531651 0.112271,0.245427 0.122585,0.727472 0.02091,0.977197 -0.182262,0.447651 -0.587313,0.699139 -1.007495,0.625528 z"
     id="path12-2" />
  <path
     style="fill:#3d3dc7;fill-opacity:1;stroke-width:0.0390121"
     d="m 5.8361655,14.222251 c 0.4449573,-0.149907 0.7516295,-0.0736 0.8127565,0.404374 l -1.6255132,2.415008 0.8914106,0.842445 0.8389745,-1.089563 C 6.9136957,16.607999 7.5573215,16.609014 7.5629673,17.14803 L 7.251935,17.614496 c 1.9024842,0.125507 4.122582,0.608781 5.565935,2.459939 1.280389,-0.918559 2.695848,-0.75692 4.10849,-0.617792 l -0.786537,0.775049 c -1.252867,-0.155109 -2.145831,0.06573 -2.981118,0.699082 L 12.154693,20.680996 C 10.007163,18.500441 8.3014094,18.530701 6.6913553,18.458952 L 5.9410374,19.546503 5.036518,19.198292 5.4428962,18.636662 4.0140177,17.255053 c -0.08381,-0.103242 -0.085543,-0.222713 0,-0.359444 z"
     id="path15"
     sodipodi:nodetypes="ccccccccccccccccccc" />
  <path
     style="fill:#3d3dc7;fill-opacity:1;stroke-width:0.0390121"
     d="m 12.172432,20.650335 0.988795,0.277335 C 11.893139,22.951544 8.8673446,22.8552 7.6867819,23.047226 L 6.8507712,22.26133 c 1.4189421,0.0044 4.6417538,-0.299155 5.3216608,-1.610995 z"
     id="path16"
     sodipodi:nodetypes="ccccc" />
  <path
     style="fill:#3d3dc7;fill-opacity:1;stroke-width:0.0390121"
     d="m 5.1878743,20.760051 c 1.2576528,-0.698268 3.3199666,-0.74148 5.2039097,1.139533 l 0.886592,-0.396358 C 10.40396,20.392444 9.3823147,19.243605 5.9562458,19.544544 L 5.1570003,19.056828 4.0905897,20.378025 c -0.2758948,0.257205 0.041216,0.564882 0.3263348,0.778385 z"
     id="path17"
     sodipodi:nodetypes="cccccccc" />
  <path
     style="fill:#3d3dc7;fill-opacity:1;stroke-width:0.0390121"
     d="M 5.2027733,20.69955 16.164416,31.048884 26.774449,20.160412 24.559913,17.057727 c 0.04643,-0.295169 0.0648,-0.618161 0.785141,-0.417356 l 2.311508,3.2769 c 0.234426,0.265958 0.116497,0.404794 -0.04319,0.528566 L 16.454337,32.016161 c -0.183012,0.06711 -0.362266,0.06984 -0.53667,-0.01056 L 4.302154,21.032552 Z"
     id="path18"
     sodipodi:nodetypes="ccccccccccc" />
  <path
     style="fill:#3d3dc7;fill-opacity:1;stroke-width:0.0390121"
     d="m 25.838487,17.505508 0.571561,0.764485 1.384856,-1.476482 c 0.146726,-0.117256 0.199506,-0.257153 0.02636,-0.4515 l -1.896923,-2.673525 c -0.41929,-0.21968 -0.670905,-0.09631 -0.748981,0.380549 l 1.663569,2.360701 c 0.07235,0.09589 0.01758,0.126425 -0.0038,0.174149 z"
     id="path19"
     sodipodi:nodetypes="ccccccccc" />
  <path
     style="fill:#3d3dc7;fill-opacity:1;stroke-width:0.0390121"
     d="m 8.4908418,23.847028 c 2.3855312,0.268531 4.7101882,-0.692907 7.4805662,-3.580067 0.987501,-0.890288 1.744549,-2.192416 4.7035,-1.393441 1.923276,-0.909499 3.396097,-1.159668 4.528368,-1.221939 l 0.375281,0.900377 c -3.856423,0.498086 -4.625063,1.074346 -5.51586,1.968426 -2.31149,1.568101 -3.860766,5.758558 -9.069993,5.749083 L 9.7667907,25.090405 c 1.3863093,0.466715 3.0341073,0.513314 6.0044693,-1.564941 1.28034,-1.357709 2.233569,-2.71542 3.927923,-4.07313 -1.103718,-0.03484 -1.736009,0.425184 -2.376769,0.900375 -3.055325,3.289087 -4.780411,4.166722 -7.9058833,4.394695 z"
     id="path20"
     sodipodi:nodetypes="ccccccccccccc" />
  <path
     style="fill:#3d3dc7;fill-opacity:1;stroke-width:0.0390121"
     d="m 18.918078,28.293985 0.919797,-0.931436 c -0.311267,-1.689697 1.19895,-3.784526 4.306319,-4.358655 l 0.933734,-1.086678 c -3.775083,0.54594 -6.81246,2.405043 -6.257406,6.412595 z"
     id="path21"
     sodipodi:nodetypes="cccccc" />
  <path
     style="fill:#3d3dc7;fill-opacity:1;stroke-width:0.0390121"
     d="m 12.42888,27.614027 c 3.086147,-0.671134 5.831309,-3.387509 8.510555,-6.499252 2.856811,-1.937975 3.914014,-1.331615 5.502293,-1.476101 l 0.488519,0.550784 -0.462808,0.330471 c -3.828117,0.187301 -3.67293,0.487577 -4.833792,1.211725 -3.986229,5.152408 -6.59372,5.983827 -8.484841,6.609408 z"
     id="path22"
     sodipodi:nodetypes="cccccccc" />
  <ellipse
     style="fill:#00ffff;fill-opacity:1;stroke-width:0.0444492"
     id="path7"
     cx="11.889987"
     cy="16.625889"
     rx="0.84557092"
     ry="1.0716155" />
  <ellipse
     style="fill:#00ffff;fill-opacity:1;stroke-width:0.0444492"
     id="path7-5"
     cx="19.995766"
     cy="16.642925"
     rx="0.84557092"
     ry="1.0716155" />
</svg>
