<?xml version="1.0" encoding="UTF-8" standalone="no"?>
<!-- Uploaded to: SVG Repo, www.svgrepo.com, Generator: SVG Repo Mixer Tools -->

<svg
   width="800px"
   height="800px"
   viewBox="0 0 32 32"
   version="1.1"
   id="svg2"
   sodipodi:docname="favicon3.svg"
   inkscape:version="1.3.2 (091e20e, 2023-11-25)"
   xmlns:inkscape="http://www.inkscape.org/namespaces/inkscape"
   xmlns:sodipodi="http://sodipodi.sourceforge.net/DTD/sodipodi-0.dtd"
   xmlns="http://www.w3.org/2000/svg"
   xmlns:svg="http://www.w3.org/2000/svg"
   xmlns:rdf="http://www.w3.org/1999/02/22-rdf-syntax-ns#"
   xmlns:cc="http://creativecommons.org/ns#"
   xmlns:dc="http://purl.org/dc/elements/1.1/">
  <sodipodi:namedview
     id="namedview2"
     pagecolor="#ffffff"
     bordercolor="#000000"
     borderopacity="0.25"
     inkscape:showpageshadow="2"
     inkscape:pageopacity="0.0"
     inkscape:pagecheckerboard="0"
     inkscape:deskcolor="#d1d1d1"
     inkscape:zoom="0.295"
     inkscape:cx="-15.254237"
     inkscape:cy="425.42373"
     inkscape:window-width="1376"
     inkscape:window-height="916"
     inkscape:window-x="0"
     inkscape:window-y="38"
     inkscape:window-maximized="0"
     inkscape:current-layer="svg2" />
  <defs
     id="defs2">
    <linearGradient
       id="a"
       x1="-66.775"
       y1="-171.703"
       x2="-66.775"
       y2="-171.817"
       gradientTransform="matrix(240, 0, 0, -240, 16042, -41206)"
       gradientUnits="userSpaceOnUse">
      <stop
         offset="0"
         stop-color="#ec790f"
         id="stop1" />
      <stop
         offset="1"
         stop-color="#f51032"
         id="stop2" />
    </linearGradient>
  </defs>
  <title
     id="title2">file_type_favicon</title>
  <metadata
     id="metadata2">
    <rdf:RDF>
      <cc:Work
         rdf:about="">
        <dc:title>file_type_favicon</dc:title>
      </cc:Work>
    </rdf:RDF>
  </metadata>
  <path
     style="display:inline;fill:#274b87;fill-opacity:1;stroke-width:0.04221"
     d="m 1.4461017,15.494465 0.024688,-7.484951 14.4152472,-7.84137826 14.36588,7.89053996 0.01236,7.4357893 -8.799746,-4.80561 0.04937,-1.3519588 6.084516,3.3799018 -0.03703,-1.401125 L 15.848998,4.8631298 4.0872424,11.340254 4.1489504,12.704506 10.24581,9.3737662 10.19644,10.725728 Z"
     id="path2"
     sodipodi:nodetypes="ccccccccccccccc" />
  <path
     style="display:inline;fill:#6493dc;fill-opacity:1;stroke-width:0.04221"
     d="m 11.475174,13.329489 -0.02789,-4.6166212 4.433711,-2.45757 4.37794,2.4159159 0.02789,4.7068723 -4.42674,-2.464514 z"
     id="path3" />
  <path
     style="display:inline;fill:#274b87;fill-opacity:1;stroke-width:0.04221"
     d="m 1.4579628,23.789016 -0.00768,-6.965841 8.7455342,-4.786623 0.04607,2.010993 -3.777703,2.026287 0.038392,10.498462 z"
     id="path4" />
  <path
     style="display:inline;fill:#aec7ec;fill-opacity:1;stroke-width:0.04221"
     d="m 15.874781,12.260853 8.104698,4.432009 0.03272,3.258829 -8.159238,-4.486321 -8.0828776,4.475456 -0.010922,-3.237101 z"
     id="path5" />
  <path
     style="display:inline;fill:#274b87;fill-opacity:1;stroke-width:0.04221"
     d="m 25.212538,26.533683 5.057538,-2.686809 v -7.059078 l -8.781001,-4.788671 0.03981,2.072117 3.703553,1.982887 z"
     id="path6" />
  <path
     style="display:inline;fill:#6493dc;fill-opacity:1;stroke-width:0.04221"
     d="m 7.7024143,27.231495 0.043435,-5.958297 3.6593837,-1.957263 0.05429,9.970145 z"
     id="path7" />
  <path
     style="display:inline;fill:#274b87;fill-opacity:1;stroke-width:0.04221"
     d="m 12.676082,18.573494 3.206615,-1.730946 3.191629,1.790634 0.01497,11.310835 -3.161663,1.775712 -3.266551,-1.820479 z"
     id="path8" />
  <path
     style="display:inline;fill:#6493dc;fill-opacity:1;stroke-width:0.04221"
     d="m 20.298682,19.304591 0.03565,9.922486 3.689663,-1.952546 -0.03565,-6.017394 z"
     id="path9" />
</svg>
