<?xml version="1.0" encoding="UTF-8" standalone="no"?>
<!-- Uploaded to: SVG Repo, www.svgrepo.com, Generator: SVG Repo Mixer Tools -->

<svg
   width="800px"
   height="800px"
   viewBox="0 0 32 32"
   version="1.1"
   id="svg2"
   sodipodi:docname="favicon.svg"
   inkscape:version="1.3.2 (091e20e, 2023-11-25)"
   xmlns:inkscape="http://www.inkscape.org/namespaces/inkscape"
   xmlns:sodipodi="http://sodipodi.sourceforge.net/DTD/sodipodi-0.dtd"
   xmlns="http://www.w3.org/2000/svg"
   xmlns:svg="http://www.w3.org/2000/svg"
   xmlns:rdf="http://www.w3.org/1999/02/22-rdf-syntax-ns#"
   xmlns:cc="http://creativecommons.org/ns#"
   xmlns:dc="http://purl.org/dc/elements/1.1/">
  <sodipodi:namedview
     id="namedview2"
     pagecolor="#ffffff"
     bordercolor="#000000"
     borderopacity="0.25"
     inkscape:showpageshadow="2"
     inkscape:pageopacity="0.0"
     inkscape:pagecheckerboard="0"
     inkscape:deskcolor="#d1d1d1"
     inkscape:zoom="0.295"
     inkscape:cx="398.30508"
     inkscape:cy="401.69492"
     inkscape:window-width="1376"
     inkscape:window-height="916"
     inkscape:window-x="0"
     inkscape:window-y="38"
     inkscape:window-maximized="0"
     inkscape:current-layer="svg2" />
  <defs
     id="defs2">
    <linearGradient
       id="a"
       x1="-66.775"
       y1="-171.703"
       x2="-66.775"
       y2="-171.817"
       gradientTransform="matrix(240, 0, 0, -240, 16042, -41206)"
       gradientUnits="userSpaceOnUse">
      <stop
         offset="0"
         stop-color="#ec790f"
         id="stop1" />
      <stop
         offset="1"
         stop-color="#f51032"
         id="stop2" />
    </linearGradient>
  </defs>
  <title
     id="title2">file_type_favicon</title>
  <path
     style="display:inline;fill:#72b5e8;fill-opacity:1;stroke-width:0.039249"
     d="m 10.227294,6.2120641 3.628838,-0.015648 0.01343,0.2844341 3.39736,-0.035554 -0.01007,-0.2327193 2.910584,0.00646 0.03357,1.5611564 -4.793219,-0.030153 0.03905,1.5040965 1.942989,-0.0094 v 6.4112072 l -2.187083,0.0094 0.02929,-2.867183 -1.523147,0.0188 0.03906,-3.6004278 -5.7020391,0.028201 -0.0098,-1.5228972 2.2261391,-0.0094 z"
     id="path1" />
  <rect
     style="display:inline;fill:#badcf4;fill-opacity:1;stroke-width:0.039249"
     id="rect1"
     width="3.4717684"
     height="3.699713"
     x="13.817138"
     y="2.7956007" />
  <rect
     style="fill:#badcf4;fill-opacity:1;stroke-width:0.039249"
     id="rect2-4"
     width="2.6476099"
     height="1.5274954"
     x="15.403644"
     y="7.7351656" />
  <rect
     style="fill:#badcf4;fill-opacity:1;stroke-width:0.039249"
     id="rect3"
     width="2.6913819"
     height="1.6138648"
     x="10.571542"
     y="1.6053194" />
  <rect
     style="fill:#badcf4;fill-opacity:1;stroke-width:0.039249"
     id="rect4"
     width="2.5969477"
     height="1.6138648"
     x="15.977914"
     y="0.49152547" />
  <rect
     style="fill:#72b5e8;fill-opacity:1;stroke-width:0.039249"
     id="rect5"
     width="2.2192097"
     height="2.2048578"
     x="20.628807"
     y="3.3328369" />
  <rect
     style="fill:#72b5e8;fill-opacity:1;stroke-width:0.039249"
     id="rect6"
     width="2.1247749"
     height="1.5684041"
     x="19.684464"
     y="8.4471989" />
  <rect
     style="fill:#244f73;fill-opacity:1;stroke-width:0.039249"
     id="rect7"
     width="2.5733387"
     height="2.2048578"
     x="18.598469"
     y="12.879642" />
  <rect
     style="fill:#244f73;fill-opacity:1;stroke-width:0.039249"
     id="rect8"
     width="2.9510765"
     height="1.8866309"
     x="9.4383268"
     y="13.311526" />
  <path
     style="display:inline;fill:#244f73;fill-opacity:1;stroke-width:0.039249"
     d="m 13.642647,15.64253 6.102133,0.025 v 3.287592 l -2.531736,-0.0375 0.05193,1.925055 -2.077322,-0.01251 0.03895,1.625046 2.038371,0.025 -0.10805,4.232536 c 1.843434,-0.229116 6.521168,-2.70481 7.036927,-5.000139 -0.678061,-0.0527 -1.356124,0.04117 -2.034184,-0.294927 2.888658,-2.085948 3.150308,-3.118024 3.817077,-4.31262 2.551059,5.070591 0.292041,9.228977 -8.036637,12.57535 -1.640279,0.97504 -1.932099,1.661571 -2.466821,2.400069 C 14.838248,31.386469 15.298136,31.388867 13.357014,29.755417 2.4280079,25.7454 3.8445259,20.142951 4.9291169,17.111837 c 1.530994,2.586149 2.599624,3.232034 3.766905,4.293346 -0.916331,0.431403 -1.443352,0.206855 -2.129254,0.250006 0.77684,1.290888 2.748015,4.04705 7.0758781,4.950138 l 0.02597,-7.687714 1.42816,0.025 -0.05193,-2.100059 -1.363242,0.01251 z"
     id="path8"
     sodipodi:nodetypes="cccccccccccccccccccccccc" />
  <rect
     style="fill:#72b5e8;fill-opacity:1;stroke-width:0.039249"
     id="rect9"
     width="2.4717205"
     height="2.1331"
     x="12.571017"
     y="16.804871" />
  <rect
     style="fill:#72b5e8;fill-opacity:1;stroke-width:0.039249"
     id="rect10"
     width="2.1552196"
     height="1.7267952"
     x="15.178382"
     y="20.780851" />
  <metadata
     id="metadata2">
    <rdf:RDF>
      <cc:Work
         rdf:about="">
        <dc:title>file_type_favicon</dc:title>
      </cc:Work>
    </rdf:RDF>
  </metadata>
</svg>
