<?xml version="1.0" encoding="UTF-8" standalone="no"?>
<!-- Uploaded to: SVG Repo, www.svgrepo.com, Generator: SVG Repo Mixer Tools -->

<svg
   width="800px"
   height="800px"
   viewBox="0 0 32 32"
   version="1.1"
   id="svg2"
   sodipodi:docname="favicon1.svg"
   inkscape:version="1.3.2 (091e20e, 2023-11-25)"
   xmlns:inkscape="http://www.inkscape.org/namespaces/inkscape"
   xmlns:sodipodi="http://sodipodi.sourceforge.net/DTD/sodipodi-0.dtd"
   xmlns="http://www.w3.org/2000/svg"
   xmlns:svg="http://www.w3.org/2000/svg"
   xmlns:rdf="http://www.w3.org/1999/02/22-rdf-syntax-ns#"
   xmlns:cc="http://creativecommons.org/ns#"
   xmlns:dc="http://purl.org/dc/elements/1.1/">
  <sodipodi:namedview
     id="namedview2"
     pagecolor="#ffffff"
     bordercolor="#000000"
     borderopacity="0.25"
     inkscape:showpageshadow="2"
     inkscape:pageopacity="0.0"
     inkscape:pagecheckerboard="0"
     inkscape:deskcolor="#d1d1d1"
     inkscape:zoom="0.295"
     inkscape:cx="174.57627"
     inkscape:cy="167.79661"
     inkscape:window-width="1376"
     inkscape:window-height="916"
     inkscape:window-x="0"
     inkscape:window-y="38"
     inkscape:window-maximized="0"
     inkscape:current-layer="svg2" />
  <defs
     id="defs2">
    <linearGradient
       id="a"
       x1="-66.775"
       y1="-171.703"
       x2="-66.775"
       y2="-171.817"
       gradientTransform="matrix(240, 0, 0, -240, 16042, -41206)"
       gradientUnits="userSpaceOnUse">
      <stop
         offset="0"
         stop-color="#ec790f"
         id="stop1" />
      <stop
         offset="1"
         stop-color="#f51032"
         id="stop2" />
    </linearGradient>
  </defs>
  <title
     id="title2">file_type_favicon</title>
  <metadata
     id="metadata2">
    <rdf:RDF>
      <cc:Work
         rdf:about="">
        <dc:title>file_type_favicon</dc:title>
      </cc:Work>
    </rdf:RDF>
  </metadata>
  <path
     style="fill:#000080;fill-opacity:1;stroke-width:0.0549333"
     d="m 5.1902151,4.5133953 c 0.2744603,-0.00697 0.6338084,-0.026245 0.7456497,-0.0097 C 6.9868484,4.1844795 7.293715,4.011389 7.5705528,3.8441904 7.9472228,3.6107515 8.3542982,3.3464748 8.6603448,3.1846881 9.1318874,2.8552637 9.5908779,2.5895165 10.036923,2.3894071 10.315228,2.294647 10.585552,2.1836101 10.887721,2.137241 h 0.200756 C 10.95725,2.4164363 10.975115,2.3931139 10.935519,2.4863832 10.346712,2.7127967 9.8918503,2.9618689 9.4537852,3.2137697 8.0968256,4.0877792 8.8076064,3.6268342 8.4978286,3.8247789 8.15087,4.0113379 7.8761384,4.1392744 7.6565815,4.2224142 l 0.095617,0.048503 c -0.00927,0.04207 0.013084,0.070151 0.8029998,-0.2424656 C 8.8756156,3.8630195 9.0497592,3.7823815 9.5302789,3.5241293 9.8236815,3.3614951 10.112897,3.2158728 10.381077,3.1555857 c 0.126294,-0.035535 0.177918,-0.071173 0.468422,-0.1066869 0.100548,0.5985311 0.256394,1.0566404 0.45886,1.3965895 -0.422485,0.05851 -0.762892,0.1031341 -1.032435,0.1357786 C 8.5584711,5.1071963 9.1811271,4.9026354 8.9662623,4.9595118 8.5015944,5.187038 8.0804983,5.2598547 7.66616,5.3086643 c -0.2883099,0.037063 -0.5433456,0.040436 -0.7552016,0 C 6.1844416,5.2159427 5.6942442,4.8568992 5.1902355,4.5133832 Z"
     id="path1"
     sodipodi:nodetypes="cccccccccccccccccccccc" />
  <path
     style="fill:#000080;fill-opacity:1;stroke-width:0.0549333"
     d="M 11.529433,8.9931953 9.9765448,10.799208 c 0.079508,0.546505 0.2069952,1.093003 0.3535002,1.639504 C 10.066042,12.155779 9.8058535,11.868977 9.5094111,11.618965 9.7013292,12.246588 10.0782,12.87421 10.393172,13.501832 9.6404163,12.84914 8.8103394,12.118008 8.7392834,12.156926 c 0.4186001,0.918603 1.0544776,1.774217 1.7043896,2.625767 l -2.2472679,-2.036575 -0.088373,0.153705 c 0.7388965,0.960196 1.6262269,1.990061 2.4997699,2.984407 0.746374,0.762046 -1.8116875,-1.457808 -2.9921489,-2.472062 l -0.1388763,0.217744 3.1562762,3.394285 C 9.7519323,16.331822 8.7147509,15.466104 7.0601454,14.03979 L 6.8581435,14.321578 C 7.7465364,15.29887 8.349669,15.91233 9.0422871,16.780835 7.8623332,15.967443 7.3164736,15.516535 6.3783898,14.808306 L 4.00487,17.510924 c 3.4099039,-0.338778 3.7485668,-0.258926 7.448812,0.397064 -0.209984,-1.833494 -0.439706,-6.492748 0.07578,-8.9147964 z"
     id="path2"
     sodipodi:nodetypes="cccccccccccccccccccc" />
  <path
     style="fill:#000080;fill-opacity:1;stroke-width:0.0549333"
     d="m 11.59342,1.8225994 c -0.08807,-0.040538 -0.200162,-0.07301 -0.231222,-0.1329298 -0.09974,-0.055038 -0.109385,-0.1648602 -0.107906,-0.2814929 0.05405,-0.1261699 0.03855,-0.2826263 0.223512,-0.3518687 0.105329,-0.0938411 0.210669,-0.0587146 0.315998,-0.054732 0.126264,0.012662 0.196367,0.082303 0.262051,0.1563849 0.133491,0.099049 0.103618,0.1704356 0.123315,0.250216 0.03432,0.061982 0.01912,0.1072382 -0.0077,0.148563 -0.01782,0.1226369 -0.108681,0.1712321 -0.184973,0.2345826 l 1.734137,17.1243015 -0.693654,0.203305 z"
     id="path3"
     sodipodi:nodetypes="cccccccccccc" />
  <path
     style="fill:#000080;fill-opacity:1;stroke-width:0.0549333"
     d="M 11.50588,8.065722 1.5401446,18.203963 1.7745043,18.212234 11.576734,8.0850526 Z"
     id="path4" />
  <path
     style="fill:#000080;fill-opacity:1;stroke-width:0.0549333"
     d="m 13.021196,4.7768279 c 0.431589,2.7075176 0.940426,7.8710491 1.144335,12.6739361 2.271258,-0.921225 7.039359,-3.750367 12.7611,-4.406417 l -0.719545,-0.439761 c -3.602224,0.588628 -7.201071,1.654642 -10.697821,3.201467 L 15.4833,15.691717 c 1.786521,-0.813326 4.887789,-2.217667 7.637544,-3.219058 -2.498148,0.664322 -5.011351,1.439489 -7.498878,2.453871 l 0.0087,-0.140721 c 1.395547,-0.693115 4.104931,-2.039593 5.79104,-2.752913 -1.540819,0.448839 -3.930048,1.094244 -5.895071,1.970134 l -0.05202,-0.105545 c 1.452722,-0.818612 3.594964,-1.939013 5.426933,-2.735319 -2.427834,0.522256 -5.372579,1.642379 -5.487618,1.759049 l -0.01731,-0.07914 c 0.687868,-0.429279 2.258953,-1.216954 4.438619,-2.2516 -1.479547,0.289274 -2.959094,0.6913 -4.438643,1.240129 v -0.08792 C 17.094957,10.670509 19.262652,9.9051065 20.82353,9.4119126 20.420732,9.1795877 20.182193,9.0514261 19.133033,8.4092523 c 0.127603,0.256639 0.231623,0.5073042 0.190719,0.7212088 l -0.09531,0.00883 C 18.954708,8.729021 18.450546,8.2719762 17.971385,7.8200112 18.188163,8.543497 18.324009,9.123301 18.370168,9.5438767 H 18.248795 C 18.021951,8.7895833 17.567168,8.1013571 17.043773,7.4330201 c 0.156299,0.8208904 0.361251,1.641778 0.320759,2.462667 l -0.104031,0.017565 c -0.331899,-1.123651 -0.81749,-2.1952734 -1.41312,-3.1750526 0.237955,1.2216945 0.466811,2.504059 0.52882,3.6500225 H 16.237498 C 15.958393,8.9194883 15.467801,7.4871754 14.74639,6.1049426 14.98821,7.65 15.187556,9.5497567 15.205865,10.616899 l -0.104037,-0.0088 C 14.746972,8.7745073 14.259325,6.9164465 13.437325,4.9967101 Z"
     id="path5"
     sodipodi:nodetypes="cccccccccccccccccccccccccccccccccccc" />
  <path
     style="fill:#000080;fill-opacity:1;stroke-width:0.0549333"
     d="m 29.810476,13.613245 0.371239,0.0048 L 13.68054,4.2456111 Z"
     id="path6" />
  <path
     style="fill:#000080;fill-opacity:1;stroke-width:0.0549333"
     d="m 2.2073395,20.939435 c 5.0548575,0.138995 10.3589555,2.631094 22.1424935,-2.499232 -0.02536,0.181985 0.137104,-0.256363 0.584852,-0.734157 0.793006,-0.68891 3.357249,-2.299479 7.018743,-2.901053 l -0.02599,-0.197802 C 21.051982,15.822164 15.611111,22.150912 0.38208328,18.813716 l -0.19496464,0.290106 0.19496464,0.23736 c 3.34176562,0.756315 7.23155792,1.211398 10.71008272,1.213167 -0.506719,0.22144 -0.626843,0.493253 -9.1503625,-0.32967 l 0.2469531,0.303294 z"
     id="path7"
     sodipodi:nodetypes="cccccccccccc" />
  <path
     style="fill:#000080;fill-opacity:1;stroke-width:0.0549333"
     d="m 3.6692947,21.432897 c 4.2921242,0.522427 5.7836261,0.640274 8.8510643,0.60959 2.817649,-0.09221 6.566847,-0.672216 11.162046,-2.391466 -0.32251,0.500176 -0.686438,1.000352 -1.201711,1.500526 -3.473354,1.307479 -7.701065,1.910859 -12.386867,2.086671 0.858529,0.06729 -0.2264605,0.207655 4.205988,0.14067 1.5801,-0.04758 3.233214,-0.169302 5.055242,-0.462364 -1.48319,0.513103 -3.994906,0.8175 -6.677391,1.087259 l 0.0064,0.109372 c 1.221,0.0483 2.247885,0.13008 5.960824,-0.250911 -1.184146,0.451194 -2.89503,0.63519 -4.546716,0.849217 -0.16265,0.140119 1.568513,0.139649 3.354551,0.135105 -1.01452,0.304213 -2.271271,0.465071 -3.868195,0.424613 -2.05385,-0.03053 -4.234511,-0.189786 -6.5311758,-0.466693 -3.5854717,-0.195791 -4.1473808,-0.02349 -5.4569324,0.0578 0.6145141,-0.270199 0.8323292,-0.518036 3.1060339,-0.88175 0.4354491,-0.03523 0.9129396,-0.02778 1.3962916,-0.0145 C 4.6665202,23.188173 4.2098301,22.306062 3.6693364,21.4329 Z"
     id="path8"
     sodipodi:nodetypes="cccccccccccccccccc" />
  <path
     style="fill:#000080;fill-opacity:1;stroke-width:0.0549333"
     d="m 21.680658,22.232765 c -0.495608,0.603147 -1.341055,1.399883 -2.194383,2.200982 0.343969,-0.05208 -0.477702,0.0067 1.782937,-0.227689 2.050851,-0.02818 2.34493,0.03523 3.964849,0.328883 -0.823904,-0.453596 -1.817235,-0.877559 -4.538382,-0.999293 l 0.02496,-0.113845 c 0.927061,-0.247571 2.10691,-0.726202 4.176811,-0.594518 2.7652,0.406223 3.077379,0.12327 3.777826,-0.05055 -0.241729,0.04136 -0.371949,0.03993 -0.961562,-0.01337 -0.277632,-0.02512 -0.924886,-0.08976 -1.259187,-0.193769 -0.332908,-0.103623 -0.796035,-0.117572 -1.04589,-0.197648 -0.445363,-0.09425 -0.75496,-0.169547 -1.125363,-0.209361 -0.851432,-0.0915 -1.596891,-0.04973 -2.001579,-0.0065 -0.321745,0.03441 -0.197333,0.0778 -0.601017,0.07669 z"
     id="path9"
     sodipodi:nodetypes="ccccccccsscssc" />
  <path
     style="fill:#000080;fill-opacity:1;stroke-width:0.0549333"
     d="m 3.6910118,25.869659 c 0.1224401,-0.05004 2.7064746,-0.190931 4.5764244,0.17795 4.6223898,1.3939 8.0644058,0.526308 8.6425868,0.404436 2.750915,-0.746818 4.312808,-0.846347 5.325875,-0.647095 -1.414766,0.01103 -3.089259,0.592905 -4.751828,1.148603 -3.526558,1.384576 -5.915882,0.67529 -8.3236724,0 -3.3322307,-1.026969 -3.912773,-0.840159 -5.4693858,-1.083894 z"
     id="path10"
     sodipodi:nodetypes="ccccccc" />
</svg>
