<?xml version="1.0" encoding="UTF-8" standalone="no"?>
<!-- Created with Inkscape (http://www.inkscape.org/) -->

<svg
   width="100"
   height="100"
   viewBox="10 30 190 225"
   version="1.1"
   id="svg1"
   inkscape:version="1.3.2 (091e20e, 2023-11-25)"
   sodipodi:docname="logo-ship-2.svg"
   xmlns:inkscape="http://www.inkscape.org/namespaces/inkscape"
   xmlns:sodipodi="http://sodipodi.sourceforge.net/DTD/sodipodi-0.dtd"
   xmlns="http://www.w3.org/2000/svg"
   xmlns:svg="http://www.w3.org/2000/svg"><sodipodi:namedview
     id="namedview1"
     pagecolor="#ffffff"
     bordercolor="#000000"
     borderopacity="0.25"
     inkscape:showpageshadow="2"
     inkscape:pageopacity="0.0"
     inkscape:pagecheckerboard="0"
     inkscape:deskcolor="#d1d1d1"
     inkscape:document-units="mm"
     inkscape:zoom="0.40107953"
     inkscape:cx="175.77561"
     inkscape:cy="565.97253"
     inkscape:window-width="1640"
     inkscape:window-height="939"
     inkscape:window-x="88"
     inkscape:window-y="38"
     inkscape:window-maximized="0"
     inkscape:current-layer="layer1" /><defs
     id="defs1" /><g
     inkscape:label="Layer 1"
     inkscape:groupmode="layer"
     id="layer1"><path
       style="fill:#0204ff;stroke-width:0.264583;fill-opacity:1"
       d="m 81.590698,83.26301 0.09007,-20.985541 2.972199,1.441066 v 20.985541 z"
       id="path1" /><path
       style="fill:#0204ff;stroke-width:0.264583;fill-opacity:1"
       d="M 85.727675,66.309692 V 80.22591 c 4.062144,2.086025 9.313031,-2.895557 14.353965,-6.321267 2.18683,-1.486119 5.35498,-2.347955 7.11677,-1.750138 -5.43702,-5.660169 -12.276252,-2.402896 -15.070082,-2.619641 -2.023302,-0.156968 -4.278333,-1.675322 -6.400653,-3.225172 z"
       id="path2"
       sodipodi:nodetypes="ccscsc" /><path
       style="fill:#0204ff;stroke-width:0.264583;fill-opacity:1"
       d="m 31.095225,72.102038 c 24.646438,6.034817 40.218156,11.014435 75.296915,18.262313 6.83322,6.438557 19.81541,15.379019 24.44341,60.827549 -31.015955,9.36266 -55.024399,15.92232 -80.775615,23.17909 17.411702,-7.14567 11.060133,-3.77317 69.818225,-29.2197 -2.3612,-23.62171 -9.90879,-37.15876 -18.96471,-47.762972 C 85.30069,90.432631 55.462832,80.741349 31.095225,72.102038 Z"
       id="path3"
       sodipodi:nodetypes="ccccccc" /><path
       style="fill:#0204ff;stroke-width:0.264583;fill-opacity:1"
       d="M 50.267863,80.315445 66.851369,166.16699 Z"
       id="path4" /><path
       style="fill:#0204ff;stroke-width:0.264583;fill-opacity:1"
       d="M 50.267863,80.187879 C 100.72488,132.177 74.623732,160.27353 66.723803,166.16699 86.129459,128.38475 57.950079,93.731898 50.267861,80.187879 Z"
       id="path5"
       sodipodi:nodetypes="cccc" /><path
       style="fill:#0204ff;stroke-width:0.264583;fill-opacity:1"
       d="m 26.289074,185.77233 c 51.279159,-13.81528 107.570206,-29.19678 167.903196,-45.84139 -2.80223,6.07889 -19.03623,12.7643 -45.47757,21.82923 2.92087,0.90869 12.38488,1.08344 17.28147,-1.8191 -4.02316,5.37815 -9.65771,22.61154 -8.73169,34.56295 l 18.91867,0.18191 c 2.0224,1.65095 2.07513,3.23156 -0.18191,4.72967 L 34.475037,199.05178 c -0.885964,-0.52272 -1.643665,-1.19507 -0.727641,-3.82011 -1.49136,1.10383 -9.552898,-4.33178 -7.458322,-9.45934 z"
       id="path6"
       sodipodi:nodetypes="cccccccccc" /><ellipse
       style="fill:#0204ff;stroke-width:0.264583;fill-opacity:1"
       id="path7"
       cx="184.56134"
       cy="196.88196"
       rx="2.3201537"
       ry="2.1947401" /><ellipse
       style="fill:#0204ff;stroke-width:0.264583;fill-opacity:1"
       id="path7-4"
       cx="138.83539"
       cy="210.31155"
       rx="2.3201537"
       ry="2.1947401" /><ellipse
       style="fill:#0204ff;stroke-width:0.264583;fill-opacity:1"
       id="path7-4-2"
       cx="171.74799"
       cy="210.25105"
       rx="2.3201537"
       ry="2.1947401" /><ellipse
       style="fill:#0204ff;stroke-width:0.264583;fill-opacity:1"
       id="path7-4-2-1"
       cx="148.23035"
       cy="223.55681"
       rx="2.3201537"
       ry="2.1947401" /><ellipse
       style="fill:#0204ff;stroke-width:0.264583;fill-opacity:1"
       id="path7-4-2-1-8"
       cx="49.417847"
       cy="210.25749"
       rx="2.3201537"
       ry="2.1947401" /><ellipse
       style="fill:#0204ff;stroke-width:0.264583;fill-opacity:1"
       id="path7-4-2-1-8-5"
       cx="3.6886799"
       cy="196.74765"
       rx="2.3201537"
       ry="2.1947401" /><ellipse
       style="fill:#0204ff;stroke-width:0.264583;fill-opacity:1"
       id="path7-7"
       cx="217.33377"
       cy="196.99265"
       rx="2.3201537"
       ry="2.1947401" /><ellipse
       style="fill:#0204ff;stroke-width:0.264583;fill-opacity:1"
       id="path8"
       cx="186.0036"
       cy="198.26149"
       rx="0.1254137"
       ry="0.43894798" /><path
       style="fill:#0204ff;stroke-width:0.264583;fill-opacity:1"
       d="m 191.8,194.52771 h 17.92691 c 2.5092,1.87124 1.07889,3.63786 0.0592,4.8515 l -18.16356,-0.11836 c -2.01167,-1.73549 -2.07069,-3.47096 0.17749,-4.73314 z"
       id="path9"
       sodipodi:nodetypes="ccccc" /><path
       style="fill:#0204ff;stroke-width:0.264583;fill-opacity:1"
       d="M 9.5751684,194.28204 H 27.502079 c 2.5092,1.87124 1.07889,3.63786 0.0592,4.8515 L 9.3977184,199.01518 c -2.01167,-1.73549 -2.07069,-3.47096 0.17749,-4.73314 z"
       id="path9-4"
       sodipodi:nodetypes="ccccc" /><path
       style="fill:#0204ff;stroke-width:0.264583;fill-opacity:1"
       d="m 25.314719,207.6958 h 17.92691 c 2.5092,1.87124 1.07889,3.63786 0.0592,4.8515 l -18.16356,-0.11836 c -2.01167,-1.73549 -2.07069,-3.47096 0.17749,-4.73314 z"
       id="path9-4-3"
       sodipodi:nodetypes="ccccc" /><path
       style="fill:#0204ff;stroke-width:0.264583;fill-opacity:1"
       d="m 55.314344,207.88379 h 17.92691 c 2.5092,1.87124 1.07889,3.63786 0.0592,4.8515 l -18.16356,-0.11836 c -2.01167,-1.73549 -2.07069,-3.47096 0.17749,-4.73314 z"
       id="path9-4-3-5"
       sodipodi:nodetypes="ccccc" /><path
       style="fill:#0204ff;stroke-width:0.264583;fill-opacity:1"
       d="m 64.783346,221.25393 h 17.92691 c 2.5092,1.87124 1.07889,3.63786 0.0592,4.8515 l -18.16356,-0.11836 c -2.01167,-1.73549 -2.07069,-3.47096 0.17749,-4.73314 z"
       id="path9-4-3-5-7"
       sodipodi:nodetypes="ccccc" /><path
       style="fill:#0204ff;stroke-width:0.264583;fill-opacity:1"
       d="m 145.92095,207.91597 h 17.92691 c 2.5092,1.87124 1.07889,3.63786 0.0592,4.8515 l -18.16356,-0.11836 c -2.01167,-1.73549 -2.07069,-3.47096 0.17749,-4.73314 z"
       id="path9-4-3-5-7-1"
       sodipodi:nodetypes="ccccc" /><path
       style="fill:#0204ff;stroke-width:0.264583;fill-opacity:1"
       d="m 80.887554,207.87928 49.485056,0.24849 c 2.5092,1.87124 1.20314,3.51361 0.18345,4.72725 l -49.845956,-0.2426 c -2.01167,-1.73549 -2.07069,-3.47096 0.17749,-4.73314 z"
       id="path9-4-3-5-7-1-5"
       sodipodi:nodetypes="cccccc" /><path
       style="fill:#0204ff;stroke-width:0.264583;fill-opacity:1"
       d="m 90.049449,221.29963 49.982031,0.24849 c 2.5092,1.87124 1.10254,3.38937 0.0829,4.60301 l -50.242331,-0.11836 c -2.01167,-1.73549 -2.07069,-3.47096 0.17749,-4.73314 z"
       id="path9-4-3-5-7-1-5-6"
       sodipodi:nodetypes="cccccc" /></g></svg>
