<?xml version="1.0" encoding="UTF-8" standalone="no"?>
<!-- Uploaded to: SVG Repo, www.svgrepo.com, Generator: SVG Repo Mixer Tools -->

<svg
   width="800px"
   height="800px"
   viewBox="0 0 32 32"
   version="1.1"
   id="svg2"
   sodipodi:docname="favicon4.svg"
   inkscape:version="1.3.2 (091e20e, 2023-11-25)"
   xmlns:inkscape="http://www.inkscape.org/namespaces/inkscape"
   xmlns:sodipodi="http://sodipodi.sourceforge.net/DTD/sodipodi-0.dtd"
   xmlns="http://www.w3.org/2000/svg"
   xmlns:svg="http://www.w3.org/2000/svg"
   xmlns:rdf="http://www.w3.org/1999/02/22-rdf-syntax-ns#"
   xmlns:cc="http://creativecommons.org/ns#"
   xmlns:dc="http://purl.org/dc/elements/1.1/">
  <sodipodi:namedview
     id="namedview2"
     pagecolor="#ffffff"
     bordercolor="#000000"
     borderopacity="0.25"
     inkscape:showpageshadow="2"
     inkscape:pageopacity="0.0"
     inkscape:pagecheckerboard="0"
     inkscape:deskcolor="#d1d1d1"
     inkscape:zoom="0.295"
     inkscape:cx="-15.254237"
     inkscape:cy="425.42373"
     inkscape:window-width="1376"
     inkscape:window-height="916"
     inkscape:window-x="0"
     inkscape:window-y="38"
     inkscape:window-maximized="0"
     inkscape:current-layer="svg2" />
  <defs
     id="defs2">
    <linearGradient
       id="a"
       x1="-66.775"
       y1="-171.703"
       x2="-66.775"
       y2="-171.817"
       gradientTransform="matrix(240, 0, 0, -240, 16042, -41206)"
       gradientUnits="userSpaceOnUse">
      <stop
         offset="0"
         stop-color="#ec790f"
         id="stop1" />
      <stop
         offset="1"
         stop-color="#f51032"
         id="stop2" />
    </linearGradient>
  </defs>
  <title
     id="title2">file_type_favicon</title>
  <metadata
     id="metadata2">
    <rdf:RDF>
      <cc:Work
         rdf:about="">
        <dc:title>file_type_favicon</dc:title>
      </cc:Work>
    </rdf:RDF>
  </metadata>
  <rect
     style="fill:#af00af;fill-opacity:1;stroke-width:0.0284047"
     id="rect6"
     width="2.9220128"
     height="3.0491626"
     x="2.4032524"
     y="4.5369272"
     transform="matrix(0.98173748,-0.19024071,0.20190486,0.97940514,0,0)" />
  <rect
     style="fill:#ee00ee;fill-opacity:1;stroke-width:0.021299"
     id="rect6-2"
     width="2.1264863"
     height="2.3558087"
     x="0.8037113"
     y="9.7764902"
     transform="matrix(0.97928842,-0.20247022,0.18970685,0.98184078,0,0)" />
  <rect
     style="fill:#af00af;fill-opacity:1;stroke-width:0.0349348"
     id="rect6-2-7"
     width="3.6189654"
     height="3.7240431"
     x="4.5122881"
     y="10.910911"
     transform="matrix(0.98226773,-0.18748362,0.20485636,0.97879205,0,0)" />
  <rect
     style="fill:#ee00ee;fill-opacity:1;stroke-width:0.0247883"
     id="rect6-2-7-3"
     width="2.4365115"
     height="2.7848699"
     x="1.8021655"
     y="15.818475"
     transform="matrix(0.97788623,-0.20913758,0.18361224,0.98299875,0,0)" />
  <rect
     style="fill:#ff5cff;fill-opacity:1;stroke-width:0.0152992"
     id="rect6-2-7-3-0"
     width="1.4613253"
     height="1.7687913"
     x="-2.0768161"
     y="13.242653"
     transform="matrix(0.97506643,-0.22191318,0.17288378,0.98494223,0,0)" />
  <rect
     style="fill:#af00af;fill-opacity:1;stroke-width:0.0274861"
     id="rect6-2-7-3-0-6"
     width="2.7936709"
     height="2.9862814"
     x="4.58182"
     y="19.674156"
     transform="matrix(0.98078749,-0.19507921,0.19691066,0.98042144,0,0)" />
  <path
     style="fill:#3d3da0;fill-opacity:1;stroke-width:0.0399999"
     d="M 10.27728,0.6105692 C 22.455438,9.4243169 19.987444,16.498167 18.505864,21.078058 24.038269,18.917583 40.671427,7.2407763 10.281035,0.6020338 Z"
     id="path6"
     sodipodi:nodetypes="cccc" />
  <path
     style="fill:#3d3da0;fill-opacity:1;stroke-width:0.0399999"
     d="M 8.2315679,0.6136334 C 28.119606,14.168435 11.31489,26.023724 11.667358,26.026599 17.813261,21.014474 26.768372,18.800253 30.239874,18.2833 c -4.524367,5.434675 -4.084368,6.366785 -4.504638,8.079141 -2.017702,1.21632 -4.819493,2.229999 -8.026863,1.299758 -1.589438,-0.460989 -4.540202,-0.734451 -5.400835,-0.348683 -0.162459,0.266758 0.933188,-0.569068 5.875031,0.997056 3.093545,0.980378 6.671738,0.338573 9.648791,-1.216054 -3.251418,3.745648 -7.721315,3.981467 -12.026871,2.601792 -4.035735,-1.293213 -8.4498685,-0.406243 -10.4605412,0.882862 1.0683438,-0.925907 1.3567698,-1.87348 4.3356157,-2.746318 L 13.13973,16.77659 15.824018,16.225967 15.110711,12.52803 12.783077,13.06614 11.331433,7.4660511 12.488994,7.247053 12.069769,5.0257892 10.543041,5.3886999 Z"
     id="path7"
     sodipodi:nodetypes="ccccscscsccccccccccc" />
  <path
     style="fill:#3d3da0;fill-opacity:1;stroke-width:0.0399999"
     d="m 6.9642176,30.137325 c 1.928425,-0.539213 3.1678504,-1.384246 7.1880944,-0.05953 4.26683,1.402347 5.237612,1.70552 8.631665,1.29475 -2.083402,0.826135 -4.453854,1.167874 -7.798263,-0.13394 C 10.57599,29.451445 8.7621818,30.14081 6.8749243,30.181972 Z"
     id="path8"
     sodipodi:nodetypes="cccccc" />
</svg>
