<svg
        width="128"
        height="128"
        viewBox="0 40 250 250"
        version="1.1"
        preserveAspectRatio="none"
        xmlns:inkscape="http://www.inkscape.org/namespaces/inkscape"
        xmlns:sodipodi="http://sodipodi.sourceforge.net/DTD/sodipodi-0.dtd"
        xmlns="http://www.w3.org/2000/svg"
        xmlns:svg="http://www.w3.org/2000/svg"><sodipodi:namedview
     id="namedview1"
     pagecolor="#ffffff"
     bordercolor="#000000"
     borderopacity="0.25"
     inkscape:showpageshadow="2"
     inkscape:pageopacity="0.0"
     inkscape:pagecheckerboard="0"
     inkscape:deskcolor="#d1d1d1"
     inkscape:document-units="mm"
     inkscape:zoom="0.58945074"
     inkscape:cx="306.21727"
     inkscape:cy="516.5826"
     inkscape:window-width="1728"
     inkscape:window-height="972"
     inkscape:window-x="0"
     inkscape:window-y="38"
     inkscape:window-maximized="0"
     inkscape:current-layer="layer1" /><defs
        id="defs1" /><g
        inkscape:label="Layer 1"
        inkscape:groupmode="layer"
        id="layer1"><path
       style="fill:#00a7ff;stroke-width:0.264583;fill-opacity:1"
       d="m 60.851521,100.24089 c 1.331479,-0.0334 3.074798,-0.12567 3.617368,-0.0464 5.098651,-1.526399 6.587358,-2.3541 7.930383,-3.153604 1.827365,-1.116257 3.802182,-2.379966 5.286923,-3.1536 2.287592,-1.575229 4.514293,-2.845996 6.678215,-3.802875 1.350134,-0.453336 2.66156,-0.984086 4.127511,-1.205788 h 0.973907 c -0.636621,1.335077 -0.549929,1.223528 -0.742024,1.669553 -2.856492,1.082684 -5.063171,2.27367 -7.188361,3.478238 -6.583037,4.179368 -3.134797,1.975196 -4.637651,2.92172 -1.6832,0.892071 -3.016031,1.503847 -4.081132,1.901439 l 0.463764,0.231881 c -0.04497,0.201316 0.06354,0.335483 3.895627,-1.159412 1.554442,-0.791083 2.399289,-1.176683 4.730404,-2.41158 1.4234,-0.777687 2.826466,-1.474043 4.12751,-1.762307 0.612695,-0.170047 0.863144,-0.340094 2.272448,-0.510141 0.487627,2.862068 1.243849,5.052648 2.226075,6.678219 -2.049593,0.279767 -3.701003,0.493157 -5.008663,0.649267 -8.331905,2.51491 -5.311209,1.53671 -6.353583,1.80868 -2.254253,1.088 -4.297133,1.43619 -6.307206,1.66956 -1.398661,0.17741 -2.635952,0.19346 -3.663744,0 -3.524555,-0.44322 -5.902661,-2.16027 -8.347771,-3.80287 z"
       id="path1"
       sodipodi:nodetypes="cccccccccccccccccccccc" /><path
        style="fill:#00a7ff;stroke-width:0.264583;fill-opacity:1"
        d="m 91.605064,121.66243 -7.533548,8.63601 c 0.385537,2.61327 1.004206,5.22653 1.714953,7.83979 -1.280744,-1.35293 -2.542991,-2.72436 -3.981143,-3.91989 0.931044,3.00117 2.759354,6.00234 4.287385,9.00351 -3.651861,-3.12104 -7.67882,-6.61718 -8.023535,-6.43108 2.030773,4.39256 5.115599,8.48396 8.268528,12.55591 l -10.902206,-9.73849 -0.428739,0.73499 c 3.584618,4.59147 7.889335,9.51609 12.127174,14.27086 3.620893,3.64396 -8.789069,-6.97096 -14.515861,-11.82093 l -0.673733,1.04122 15.312091,16.23082 c -4.274577,-3.31081 -9.306273,-7.45051 -17.333286,-14.27087 l -0.979974,1.34746 c 4.309873,4.67322 7.235859,7.60667 10.595968,11.75969 -5.724329,-3.88948 -8.372463,-6.04564 -12.923405,-9.43225 l -11.514692,12.9234 c 16.542517,-1.61997 18.185478,-1.23815 36.136532,1.8987 -1.018696,-8.76742 -2.133156,-31.04707 0.367491,-42.62885 z"
        id="path2"
        sodipodi:nodetypes="cccccccccccccccccccc" /><path
        style="fill:#00a7ff;stroke-width:0.264583;fill-opacity:1"
        d="m 91.915483,87.37402 c -0.427303,-0.19408 -0.97103,-0.349353 -1.121713,-0.63564 -0.484056,-0.262945 -0.530676,-0.788351 -0.523465,-1.346056 0.262407,-0.603301 0.186782,-1.351472 1.084323,-1.682572 0.511003,-0.448762 1.022006,-0.280974 1.533009,-0.261733 0.61255,0.06048 0.95262,0.393437 1.271275,0.74781 0.647603,0.47353 0.502696,0.814975 0.598249,1.196496 0.166407,0.296429 0.09258,0.51278 -0.03739,0.710417 -0.08663,0.586402 -0.52724,0.818817 -0.897371,1.121714 l 8.41285,81.885124 -3.365137,0.97216 z"
        id="path3"
        sodipodi:nodetypes="cccccccccccc" /><path
        style="fill:#00a7ff;stroke-width:0.264583;fill-opacity:1"
        d="m 91.490803,117.22743 -48.346921,48.47913 1.136953,0.0397 47.553699,-48.42624 z"
        id="path4" /><path
        style="fill:#00a7ff;stroke-width:0.264583;fill-opacity:1"
        d="m 98.842073,101.50057 c 2.093777,12.94683 4.562307,37.63785 5.551537,60.60433 11.01858,-4.40512 34.15014,-17.93353 61.90811,-21.07063 l -3.49074,-2.10286 c -17.47552,2.81471 -34.93466,7.91218 -51.8985,15.3088 l -0.12617,-0.54674 c 8.66717,-3.88916 23.7124,-10.60445 37.05233,-15.39291 -12.11931,3.17666 -24.31165,6.88336 -36.37942,11.73394 l 0.0421,-0.67292 c 6.77024,-3.31432 19.91431,-9.75292 28.09416,-13.16388 -7.475,2.14626 -19.0659,5.23246 -28.59885,9.4208 l -0.25234,-0.50469 c 7.04761,-3.91445 17.4403,-9.27199 26.32776,-13.07977 -11.77819,2.49732 -26.06407,7.85354 -26.62216,8.41143 l -0.0841,-0.37851 c 3.33716,-2.05264 10.959,-5.81915 21.53325,-10.76663 -7.17775,1.38326 -14.3555,3.30568 -21.53326,5.93006 v -0.42058 c 8.23929,-5.12677 18.75546,-8.78678 26.32777,-11.14513 -1.9541,-1.11092 -3.11131,-1.72378 -8.20114,-4.79452 0.61904,1.22722 1.1237,2.42584 0.92526,3.44869 l -0.46263,0.0421 c -1.32788,-1.96188 -3.77373,-4.14736 -6.09829,-6.30857 1.05165,3.45958 1.71068,6.23208 1.93463,8.24319 h -0.5888 c -1.10051,-3.60689 -3.3068,-6.89785 -5.84594,-10.09371 0.75826,3.92534 1.75255,7.85067 1.55611,11.776 l -0.50468,0.0841 c -1.60998,-5.37322 -3.96573,-10.49751 -6.85532,-15.18263 1.15439,5.84191 2.26463,11.97393 2.56549,17.45371 h -0.67291 c -1.35402,-7.0232 -3.73404,-13.87225 -7.23383,-20.48182 1.17312,7.38817 2.14025,16.47244 2.22903,21.57531 l -0.50469,-0.0421 c -1.72152,-8.76775 -4.08725,-17.65264 -8.07503,-26.83245 z"
        id="path5"
        sodipodi:nodetypes="cccccccccccccccccccccccccccccccccccc" /><path
        style="fill:#00a7ff;stroke-width:0.264583;fill-opacity:1"
        d="m 180.29216,143.75463 1.801,0.0231 -80.0524,-44.817334 z"
        id="path6" /><path
        style="fill:#00a7ff;stroke-width:0.264583;fill-opacity:1"
        d="m 46.380655,178.78706 c 24.522705,0.66467 50.254552,12.58138 107.420205,-11.95085 -0.12311,0.87021 0.66513,-1.22588 2.83732,-3.51061 3.84714,-3.29425 16.28707,-10.99567 34.05013,-13.87228 l -0.12611,-0.94584 c -52.76025,5.80977 -79.15563,36.07263 -153.036438,20.1148 l -0.945837,1.38723 0.945837,1.13501 c 16.211957,3.61658 35.082561,5.79267 51.957981,5.80113 -2.458235,1.0589 -3.041033,2.35862 -44.391285,-1.5764 l 1.19806,1.45029 z"
        id="path7"
        sodipodi:nodetypes="cccccccccccc" /><path
        style="fill:#00a7ff;stroke-width:0.264583;fill-opacity:1"
        d="m 53.473063,181.1467 c 20.822446,2.49813 28.058185,3.06166 42.939295,2.91494 13.669302,-0.44103 31.857842,-3.21443 54.150602,-11.43553 -1.5646,2.39174 -3.33013,4.78349 -5.82988,7.17523 -16.85033,6.25211 -37.36029,9.13736 -60.092593,9.97806 4.16498,0.32188 -1.098633,0.99296 20.404573,0.67268 7.66556,-0.22767 15.68534,-0.80959 24.52457,-2.21094 -7.19542,2.45355 -19.38055,3.90915 -32.394127,5.19906 l 0.03076,0.52298 c 5.923457,0.23106 10.905207,0.62204 28.917837,-1.19978 -5.74466,2.15753 -14.0447,3.03737 -22.05755,4.0608 -0.78907,0.67001 7.60935,0.66776 16.27398,0.64604 -4.92175,1.45469 -11.01865,2.22388 -18.76583,2.0304 -9.963871,-0.14615 -20.54294,-0.9075 -31.684786,-2.23163 -17.394255,-0.93622 -20.120251,-0.11225 -26.4733,0.27648 2.981192,-1.29204 4.037892,-2.47716 15.068353,-4.21638 2.112492,-0.16849 4.428966,-0.133 6.773847,-0.0691 -6.948103,-3.71993 -9.163646,-7.93802 -11.785751,-12.11331 z"
        id="path8"
        sodipodi:nodetypes="cccccccccccccccccc" /><path
        style="fill:#00a7ff;stroke-width:0.264583;fill-opacity:1"
        d="m 140.85185,184.97152 c -2.40434,2.88411 -6.50588,6.69397 -10.64564,10.52467 1.6687,-0.24906 -2.31746,0.032 8.64959,-1.08876 9.94932,-0.13495 11.37599,0.16857 19.23473,1.57266 -3.99702,-2.16902 -8.81598,-4.19633 -22.01712,-4.77844 l 0.12097,-0.54439 c 4.49746,-1.18384 10.22128,-3.47256 20.26302,-2.84287 13.41486,1.94248 14.92934,0.58946 18.32743,-0.24194 -1.17272,0.19752 -1.80443,0.19113 -4.66483,-0.0639 -1.34688,-0.12009 -4.48692,-0.429 -6.10871,-0.92657 -1.61503,-0.49548 -3.86182,-0.56221 -5.07394,-0.9451 -2.16059,-0.45066 -3.66253,-0.81072 -5.45949,-1.00112 -4.13054,-0.43765 -7.74702,-0.23796 -9.71029,-0.0309 -1.56088,0.16461 -0.95732,0.37211 -2.91572,0.36668 z"
        id="path9"
        sodipodi:nodetypes="ccccccccsscssc" /><path
        style="fill:#00a7ff;stroke-width:0.264583;fill-opacity:1"
        d="m 53.578419,202.36244 c 0.593973,-0.2395 13.129962,-0.91299 22.201675,0.85094 22.424665,6.66536 39.122966,2.51668 41.927906,1.93394 13.34556,-3.57113 20.92279,-4.04706 25.8375,-3.09431 -6.86348,0.0526 -14.98697,2.83514 -23.05262,5.4924 -17.10844,6.62077 -28.699803,3.2291 -40.38075,0 -16.165698,-4.91076 -18.982097,-4.01747 -26.533711,-5.18297 z"
        id="path10"
        sodipodi:nodetypes="ccccccc" /></g></svg>
