<?xml version="1.0" encoding="UTF-8" standalone="no"?>
<!-- Created with Inkscape (http://www.inkscape.org/) -->

<svg
   width="210mm"
   height="297mm"
   viewBox="0 0 210 297"
   version="1.1"
   id="svg1"
   xml:space="preserve"
   inkscape:version="1.3.2 (091e20e, 2023-11-25)"
   sodipodi:docname="logo-ship3.svg"
   xmlns:inkscape="http://www.inkscape.org/namespaces/inkscape"
   xmlns:sodipodi="http://sodipodi.sourceforge.net/DTD/sodipodi-0.dtd"
   xmlns="http://www.w3.org/2000/svg"
   xmlns:svg="http://www.w3.org/2000/svg"><sodipodi:namedview
     id="namedview1"
     pagecolor="#ffffff"
     bordercolor="#000000"
     borderopacity="0.25"
     inkscape:showpageshadow="2"
     inkscape:pageopacity="0.0"
     inkscape:pagecheckerboard="0"
     inkscape:deskcolor="#d1d1d1"
     inkscape:document-units="mm"
     inkscape:zoom="0.67442732"
     inkscape:cx="83.774779"
     inkscape:cy="543.42401"
     inkscape:window-width="1672"
     inkscape:window-height="962"
     inkscape:window-x="0"
     inkscape:window-y="38"
     inkscape:window-maximized="0"
     inkscape:current-layer="layer1" /><defs
     id="defs1" /><g
     inkscape:label="Layer 1"
     inkscape:groupmode="layer"
     id="layer1"><rect
       style="fill:#0014ff;fill-opacity:1;stroke-width:0.187885"
       id="rect6"
       width="19.327898"
       height="20.16894"
       x="7.4952126"
       y="77.219467"
       transform="matrix(0.98173748,-0.1902407,0.20190485,0.97940514,0,0)" /><rect
       style="fill:#0014ff;fill-opacity:1;stroke-width:0.140884"
       id="rect6-2"
       width="14.065822"
       height="15.582694"
       x="-2.4985304"
       y="111.77619"
       transform="matrix(0.97928842,-0.20247021,0.18970684,0.98184078,0,0)" /><rect
       style="fill:#0014ff;fill-opacity:1;stroke-width:0.231079"
       id="rect6-2-7"
       width="23.937948"
       height="24.632994"
       x="21.302883"
       y="119.40661"
       transform="matrix(0.98226773,-0.18748362,0.20485635,0.97879205,0,0)" /><rect
       style="fill:#0014ff;fill-opacity:1;stroke-width:0.163964"
       id="rect6-2-7-3"
       width="16.116508"
       height="18.420755"
       x="4.3969655"
       y="151.69485"
       transform="matrix(0.97788623,-0.20913756,0.18361227,0.98299874,0,0)" /><rect
       style="fill:#0014ff;fill-opacity:1;stroke-width:0.101198"
       id="rect6-2-7-3-0"
       width="9.6660576"
       height="11.699818"
       x="-20.751404"
       y="134.58119"
       transform="matrix(0.97506643,-0.22191318,0.17288381,0.98494223,0,0)" /><rect
       style="fill:#0014ff;fill-opacity:1;stroke-width:0.181809"
       id="rect6-2-7-3-0-6"
       width="18.47897"
       height="19.753008"
       x="22.146313"
       y="177.30344"
       transform="matrix(0.9807875,-0.19507919,0.19691067,0.98042143,0,0)" /><path
       style="fill:#0014ff;fill-opacity:1;stroke-width:0.264583"
       d="M 69.263899,51.874239 C 149.81734,110.17351 133.49259,156.96408 123.69255,187.25815 160.28711,172.96751 270.30852,95.730297 69.288733,51.817781 Z"
       id="path6"
       sodipodi:nodetypes="cccc" /><path
       style="fill:#0014ff;fill-opacity:1;stroke-width:0.264583"
       d="M 55.732364,51.894507 C 187.28345,141.55387 76.127255,219.97167 78.458686,219.99069 119.11127,186.83757 178.3456,172.19142 201.30814,168.77199 c -29.9268,35.94811 -27.01639,42.11363 -29.7963,53.44015 -13.34626,8.04545 -31.87894,14.75052 -53.09436,8.59736 -10.51347,-3.04925 -30.031541,-4.85809 -35.72427,-2.30639 -1.074603,1.76449 6.172646,-3.76415 38.86088,6.59511 20.46251,6.48479 44.13077,2.23952 63.82273,-8.04369 -21.50677,24.7759 -51.07328,26.33574 -79.55274,17.20977 -26.694701,-8.55407 -55.892358,-2.68713 -69.192118,5.83976 7.066647,-6.12449 8.974465,-12.39229 28.67829,-18.16575 l 22.887561,-73.13258 17.755447,-3.64214 -4.71823,-24.46031 -15.396332,3.55937 -9.602014,-37.042254 7.656779,-1.448581 -2.772997,-14.692735 -10.09867,2.400503 z"
       id="path7"
       sodipodi:nodetypes="ccccscscsccccccccccc" /><path
       style="fill:#0014ff;fill-opacity:1;stroke-width:0.264583"
       d="m 47.34937,247.18143 c 12.755728,-3.56667 20.954012,-9.15621 47.546249,-0.39376 28.223301,9.27594 34.644621,11.2813 57.094871,8.56423 -13.78084,5.46454 -29.46039,7.725 -51.58226,-0.88596 -29.168488,-11.82132 -41.166076,-7.26146 -53.649498,-6.98919 z"
       id="path8"
       sodipodi:nodetypes="cccccc" /></g></svg>
