<?xml version="1.0" encoding="UTF-8" standalone="no"?>
<!-- Created with Inkscape (http://www.inkscape.org/) -->

<svg
   width="210mm"
   height="297mm"
   viewBox="0 0 210 297"
   version="1.1"
   id="svg1"
   xml:space="preserve"
   inkscape:version="1.3.2 (091e20e, 2023-11-25)"
   sodipodi:docname="ship-logo5.svg"
   xmlns:inkscape="http://www.inkscape.org/namespaces/inkscape"
   xmlns:sodipodi="http://sodipodi.sourceforge.net/DTD/sodipodi-0.dtd"
   xmlns="http://www.w3.org/2000/svg"
   xmlns:svg="http://www.w3.org/2000/svg"><sodipodi:namedview
     id="namedview1"
     pagecolor="#ffffff"
     bordercolor="#000000"
     borderopacity="0.25"
     inkscape:showpageshadow="2"
     inkscape:pageopacity="0.0"
     inkscape:pagecheckerboard="0"
     inkscape:deskcolor="#d1d1d1"
     inkscape:document-units="mm"
     inkscape:zoom="0.28705826"
     inkscape:cx="-485.96406"
     inkscape:cy="604.40692"
     inkscape:window-width="1712"
     inkscape:window-height="970"
     inkscape:window-x="0"
     inkscape:window-y="38"
     inkscape:window-maximized="0"
     inkscape:current-layer="layer1" /><defs
     id="defs1" /><g
     inkscape:label="Layer 1"
     inkscape:groupmode="layer"
     id="layer1"><path
       style="fill:#0000ff;stroke-width:0.264583"
       d="m 123.58205,45.088656 -36.374751,0.07701 0.05041,-3.500694 c 0.293487,-1.494226 1.423385,-2.09628 2.772529,-2.464472 l 31.42202,0.07702 c 1.31339,0.247609 2.23879,0.860486 2.13542,2.02899 z"
       id="path1"
       sodipodi:nodetypes="ccccccc" /><path
       style="fill:#0000ff;stroke-width:0.264583"
       d="m 87.209631,44.735474 0.196096,23.600865 C 72.339106,73.016867 67.656081,85.206845 67.068028,93.171037 l 5.790553,-0.121734 C 78.298624,76.980996 88.370232,74.382761 92.956127,73.406077 l 0.05976,-28.333184 z"
       id="path2"
       sodipodi:nodetypes="ccccccc" /><path
       style="fill:#0000ff;stroke-width:0.264583"
       d="m 123.58391,44.959329 0.29534,23.459989 c 8.49983,0.957859 21.73537,12.605254 21.13878,24.777737 l -6.01356,0.03796 C 136.68462,78.428914 125.44872,73.228357 117.91596,73.50981 l 0.0825,-28.523196 z"
       id="path3"
       sodipodi:nodetypes="ccccccc" /><rect
       style="fill:#0000ff;stroke-width:0.354233"
       id="rect3"
       width="25.577621"
       height="6.0324574"
       x="92.755066"
       y="52.265213" /><rect
       style="fill:#0000ff;stroke-width:0.352911"
       id="rect3-5"
       width="25.75469"
       height="5.9463434"
       x="92.445908"
       y="67.554558" /><path
       style="fill:#0000ff;stroke-width:0.264583"
       d="m 58.405291,120.73999 6.251332,-1.33957 -0.08471,-20.13034 82.785475,0.0893 0.26332,20.30894 5.89412,1.16098 -0.0893,-25.273247 c -0.029,-1.317536 -0.51657,-2.463105 -2.76845,-2.947056 l -89.304723,0.357219 c -2.223164,0.578739 -2.583128,1.914404 -2.589837,3.393578 z"
       id="path4"
       sodipodi:nodetypes="ccccccccccc" /><path
       style="fill:#0000ff;stroke-width:0.264583"
       d="m 46.939467,123.55844 59.550073,-13.82072 58.91317,13.88441 c 1.28289,0.60219 2.15412,1.56187 1.52856,3.82139 l -10.20679,36.00534 c -3.56131,1.92815 -4.87167,0.40384 -5.81632,-1.99285 l 9.59043,-33.05714 -53.65789,-12.23367 -54.718324,12.80341 9.971816,31.59366 c -1.412274,4.45157 -4.242559,3.05098 -6.138258,2.16372 L 45.092461,127.12507 c -0.04231,-1.17109 -0.177048,-2.33969 1.847006,-3.56663 z"
       id="path5"
       sodipodi:nodetypes="ccccccccccccc" /><rect
       style="fill:#0000ff;stroke-width:0.264583"
       id="rect5"
       width="6.4800529"
       height="62.173481"
       x="103.50571"
       y="116.11555" /><path
       style="fill:#0000ff;stroke-width:0.264583"
       d="m 54.467471,139.05843 51.665279,-11.38388 52.19071,11.20875 -1.75137,5.7795 -50.61447,-10.15792 -50.089056,10.68333 z"
       id="path6"
       sodipodi:nodetypes="ccccccc" /><ellipse
       style="fill:#0000ff;stroke-width:0.347512"
       id="path11"
       cx="80.538307"
       cy="156.51555"
       rx="9.9622631"
       ry="12.722892" /><ellipse
       style="fill:#0000ff;stroke-width:0.347512"
       id="path11-5"
       cx="131.59734"
       cy="156.83316"
       rx="9.9622631"
       ry="12.722892" /><ellipse
       style="fill:#0000ff;stroke-width:0.217615"
       id="path11-5-9"
       cx="80.5187"
       cy="156.51852"
       rx="6.0013628"
       ry="8.2818823" /><path
       style="fill:#e6e6e6;fill-opacity:1;stroke-width:0.907293"
       d="m 300.62726,621.74004 c -4.63851,-0.94835 -11.41999,-6.68315 -14.09904,-11.92294 -5.73236,-11.21161 -5.74308,-25.29203 -0.0278,-36.46993 2.10165,-4.11036 8.15341,-9.9897 11.65174,-11.31976 3.49713,-1.32961 10.15923,-1.03172 13.61645,0.60884 4.39166,2.08398 9.91,8.70619 12.26809,14.72217 2.66392,6.79621 2.90865,20.14466 0.49612,27.05991 -4.32464,12.39608 -13.93561,19.36008 -23.90559,17.32171 z"
       id="path12"
       transform="scale(0.26458333)" /><path
       style="fill:#e6e6e6;fill-opacity:1;stroke-width:0.240055"
       d="m 130.70485,164.7485 c -1.22727,-0.25092 -3.02154,-1.76825 -3.73037,-3.15461 -1.51669,-2.96641 -1.51952,-6.69185 -0.007,-9.64934 0.55606,-1.08753 2.15726,-2.64311 3.08286,-2.99502 0.92528,-0.35179 2.68796,-0.27298 3.60268,0.16109 1.16196,0.55139 2.62202,2.30351 3.24593,3.89524 0.70483,1.79816 0.76958,5.32994 0.13127,7.1596 -1.14423,3.2798 -3.68713,5.12236 -6.32502,4.58304 z"
       id="path12-2" /><path
       style="fill:#cccccc;fill-opacity:0.199203;stroke-width:0.264583"
       d="m 42.687459,139.10013 4.817584,3.11009 -10.001062,17.74579 5.793298,6.28115 5.122494,-8.35455 4.63464,2.25634 -1.829464,3.90285 35.057151,17.8502 25.65144,-4.13391 24.06147,-4.23991 27.0294,-8.58581 -3.39193,-5.40588 4.8759,-3.07394 4.02791,6.35987 6.14786,-7.20785 -11.02375,-17.70161 4.6639,-3.28593 12.29572,19.71557 -0.52998,4.13391 -8.26782,9.75179 -5.51188,2.54394 -42.71706,22.04751 -48.016944,34.34325 -8.055824,-8.37382 44.095028,-18.86758 18.3376,-22.04752 -18.0196,7.73783 -46.638978,30.63333 -6.041866,-6.57186 36.887186,-15.15766 10.705768,-11.65975 -17.595615,4.02792 -34.979229,16.85362 -5.405882,-5.82987 21.517525,-2.96793 12.189733,-8.47982 -34.767234,-16.74763 -4.769895,8.69181 -5.617877,-2.86194 2.861937,-4.1339 -8.903803,-9.75179 -0.105997,-3.07393 z"
       id="path14" /><path
       style="fill:#0000ff;fill-opacity:1;stroke-width:0.264583"
       d="m 42.547868,139.16527 c 2.793424,-1.09832 4.718699,-0.53926 5.102452,2.96271 l -10.204905,17.69399 5.596239,6.17232 5.267047,-7.98287 c 1.003857,-1.36655 5.044513,-1.35911 5.079958,2.59008 l -1.952649,3.41765 c 11.943719,0.91955 25.881399,4.46034 34.94271,18.02318 8.038229,-6.72999 16.92442,-5.54571 25.79293,-4.52637 l -4.93785,5.67853 c -7.865441,-1.13643 -13.471438,0.48161 -18.715341,5.12195 L 82.21532,186.4864 C 68.733217,170.51018 58.02457,170.73188 47.916714,170.20621 l -4.710465,7.96813 -5.678535,-2.55123 2.551226,-4.11488 -8.970441,-10.1226 c -0.526151,-0.75642 -0.537041,-1.63175 0,-2.63353 z"
       id="path15"
       sodipodi:nodetypes="ccccccccccccccccccc" /><path
       style="fill:#0000ff;fill-opacity:1;stroke-width:0.264583"
       d="m 82.326685,186.26176 6.207612,2.03194 c -7.960996,14.82827 -26.956809,14.12239 -34.368335,15.5293 l -5.248441,-5.758 c 8.908063,0.0325 29.140732,-2.19182 33.409164,-11.80324 z"
       id="path16"
       sodipodi:nodetypes="ccccc" /><path
       style="fill:#0000ff;fill-opacity:1;stroke-width:0.264583"
       d="m 38.477922,187.06562 c 7.895493,-5.11599 20.842614,-5.43259 32.669933,8.34898 l 5.565989,-2.90399 C 71.22429,184.37228 64.810447,175.9551 43.301727,178.15999 l -5.01763,-3.57334 -6.694882,9.67998 c -1.732056,1.88446 0.258746,4.13871 2.048716,5.70298 z"
       id="path17"
       sodipodi:nodetypes="cccccccc" /><path
       style="fill:#0000ff;fill-opacity:1;stroke-width:0.264583"
       d="m 38.571458,186.62234 68.816742,75.82622 66.60935,-79.77631 -13.90277,-22.73237 c 0.29145,-2.1626 0.40678,-4.52906 4.92909,-3.05783 l 14.51155,24.00879 c 1.47171,1.94859 0.73135,2.96579 -0.27109,3.87263 l -70.05599,84.77201 c -1.14894,0.49166 -2.27429,0.51171 -3.36919,-0.0774 L 32.917407,189.06214 Z"
       id="path18"
       sodipodi:nodetypes="ccccccccccc" /><path
       style="fill:#0000ff;fill-opacity:1;stroke-width:0.264583"
       d="m 168.12162,163.22063 3.58823,5.60113 8.69407,-10.8177 c 0.92114,-0.8591 1.25249,-1.88408 0.1654,-3.308 l -11.90879,-19.58805 c -2.63229,-1.60952 -4.21192,-0.70565 -4.70208,2.78816 l 10.44382,17.29609 c 0.4542,0.70255 0.11036,0.92628 -0.0236,1.27594 z"
       id="path19"
       sodipodi:nodetypes="ccccccccc" /><path
       style="fill:#0000ff;fill-opacity:1;stroke-width:0.264583"
       d="m 59.213818,209.68289 c 14.976257,1.96744 29.570361,-5.0767 46.962682,-26.22999 6.19949,-6.52285 10.95221,-16.06312 29.52838,-10.20929 12.07424,-6.6636 21.32056,-8.49651 28.42891,-8.95275 l 2.35599,6.59677 c -24.21046,3.64931 -29.03595,7.87138 -34.62834,14.42202 -14.51144,11.48897 -24.23773,42.19109 -56.941037,42.12167 l -7.696227,-8.63861 c 8.703185,3.41947 19.047994,3.76089 37.695804,-11.46581 8.03792,-9.9475 14.02225,-19.89501 24.65933,-29.84251 -6.92909,-0.25526 -10.89858,3.11519 -14.92125,6.59676 -19.181207,24.09807 -30.011221,30.52822 -49.632807,32.1985 z"
       id="path20"
       sodipodi:nodetypes="ccccccccccccc" /><path
       style="fill:#0000ff;fill-opacity:1;stroke-width:0.264583"
       d="m 124.67557,242.26431 5.77445,-6.82434 c -1.95412,-12.37986 7.52696,-27.72799 27.0349,-31.93445 l 5.86194,-7.96174 c -23.69982,3.99993 -42.76835,17.62097 -39.28374,46.98301 z"
       id="path21"
       sodipodi:nodetypes="cccccc" /><path
       style="fill:#0000ff;fill-opacity:1;stroke-width:0.264583"
       d="m 83.936656,237.28247 c 19.374704,-4.91718 36.608714,-24.81918 53.428914,-47.61791 17.93495,-14.19891 24.57202,-9.75631 34.54316,-10.81492 l 3.06692,4.03542 -2.9055,2.42125 c -24.03276,1.3723 -23.05851,3.57232 -30.34634,8.87792 -25.02539,37.75003 -41.39511,43.84156 -53.267488,48.42499 z"
       id="path22"
       sodipodi:nodetypes="cccccccc" /></g></svg>
