<?xml version="1.0" encoding="UTF-8" standalone="no"?>
<!-- Created with Inkscape (http://www.inkscape.org/) -->

<svg
   width="210mm"
   height="297mm"
   viewBox="0 0 210 297"
   version="1.1"
   id="svg1"
   xml:space="preserve"
   inkscape:version="1.3.2 (091e20e, 2023-11-25)"
   sodipodi:docname="ship-logo4.svg"
   xmlns:inkscape="http://www.inkscape.org/namespaces/inkscape"
   xmlns:sodipodi="http://sodipodi.sourceforge.net/DTD/sodipodi-0.dtd"
   xmlns="http://www.w3.org/2000/svg"
   xmlns:svg="http://www.w3.org/2000/svg"><sodipodi:namedview
     id="namedview1"
     pagecolor="#ffffff"
     bordercolor="#000000"
     borderopacity="0.25"
     inkscape:showpageshadow="2"
     inkscape:pageopacity="0.0"
     inkscape:pagecheckerboard="0"
     inkscape:deskcolor="#d1d1d1"
     inkscape:document-units="mm"
     inkscape:zoom="0.21312917"
     inkscape:cx="1241.0315"
     inkscape:cy="532.54091"
     inkscape:window-width="1728"
     inkscape:window-height="1080"
     inkscape:window-x="0"
     inkscape:window-y="37"
     inkscape:window-maximized="0"
     inkscape:current-layer="layer1" /><defs
     id="defs1" /><g
     inkscape:label="Layer 1"
     inkscape:groupmode="layer"
     id="layer1"
     style="display:inline"><path
       style="display:inline;fill:#274b87;fill-opacity:1;stroke-width:0.264583"
       d="m 15.121438,152.28616 0.154402,-47.01529 90.17054,-49.254111 89.86173,49.562911 0.0772,46.70649 -55.04417,-30.18552 0.30881,-8.49208 38.05999,21.23021 -0.2316,-8.80089 -73.26357,-40.530417 -73.572361,40.684817 0.386004,8.56929 38.137196,-20.92141 -0.308803,8.49209 z"
       id="path2"
       sodipodi:nodetypes="ccccccccccccccc" /><path
       style="display:inline;fill:#6493dc;fill-opacity:1;stroke-width:0.264583"
       d="m 77.85549,138.68728 -0.174426,-28.99843 27.733836,-15.436752 27.38498,15.175112 0.17443,29.56532 -27.69023,-15.48037 z"
       id="path3" /><path
       style="display:inline;fill:#274b87;fill-opacity:1;stroke-width:0.264583"
       d="m 15.195631,204.38679 -0.04803,-43.75459 54.705235,-30.06626 0.288176,12.63167 -23.630358,12.72773 0.240147,65.94407 z"
       id="path4" /><path
       style="display:inline;fill:#aec7ec;fill-opacity:1;stroke-width:0.264583"
       d="m 105.376,131.97485 50.69666,27.83881 0.20469,20.46971 -51.03781,-28.17997 -50.560184,28.11173 -0.06823,-20.33324 z"
       id="path5" /><path
       style="display:inline;fill:#274b87;fill-opacity:1;stroke-width:0.264583"
       d="m 163.78572,221.62689 31.636,-16.87668 v -44.34024 l -54.92708,-30.07912 0.2491,13.0156 23.16653,12.45513 z"
       id="path6" /><path
       style="display:inline;fill:#6493dc;fill-opacity:1;stroke-width:0.264583"
       d="m 54.256046,226.01006 0.271693,-37.4259 22.89025,-12.29417 0.339619,62.62555 z"
       id="path7" /><path
       style="display:inline;fill:#274b87;fill-opacity:1;stroke-width:0.264583"
       d="m 85.367432,171.62649 20.058078,-10.8726 19.96435,11.24752 0.0937,71.04684 -19.77689,11.15379 -20.432997,-11.43498 z"
       id="path8" /><path
       style="display:inline;fill:#6493dc;fill-opacity:1;stroke-width:0.264583"
       d="m 133.04847,176.21873 0.22299,62.3262 23.07965,-12.26455 -0.223,-37.7971 z"
       id="path9" /></g></svg>
